<svg width="86" height="46" viewBox="0 0 86 46" fill="none" xmlns="http://www.w3.org/2000/svg">
<g clip-path="url(#clip0_13_187)">
<path d="M1.01773 22.9148L31.6782 44.8289L84.8418 44.7375L84.9197 33.7891L57.4438 1.17357H1.01773V22.9148ZM31.5319 45.9386C31.4362 45.9386 31.3424 45.9078 31.262 45.8504L0.24865 23.6841C0.105701 23.5822 0.0195312 23.4062 0.0195312 23.2176V0.618767C0.0195312 0.312416 0.243083 0.0639648 0.518516 0.0639648H57.6601C57.7982 0.0639648 57.9304 0.12756 58.0249 0.239657L85.7846 33.1927C85.8719 33.2966 85.9203 33.434 85.9191 33.5763L85.8361 45.296C85.8342 45.6003 85.6117 45.8458 85.3383 45.8461L31.5325 45.9386H31.5319Z" fill="#5667FF"/>
<path d="M32.4793 40.7028H35.115V39.8692H32.4793V40.7028ZM32.4793 38.607H36.2508V41.9648H31.3438V36.5114H36.2508V37.7658H32.4793V38.607Z" fill="#5667FF"/>
<path d="M41.6695 36.5114H42.8053V41.9648H37.8984V40.7028H41.6695V39.8692H37.8984V36.5114H39.0339V38.607H41.6695V36.5114Z" fill="#5667FF"/>
<path d="M46.1487 40.7024H48.3706V37.7654H46.7724L46.1487 38.7313V40.7024ZM49.5064 40.6788H50.0675V43.1951H48.9385V41.9643H45.5879V43.1951H44.4521V40.6788H45.02V38.2015L46.1207 36.511H49.5064V40.6788Z" fill="#5667FF"/>
<path d="M55.4859 36.5114H56.6217V41.9648H51.7148V40.7028H55.4859V39.8692H51.7148V36.5114H52.8502V38.607H55.4859V36.5114Z" fill="#5667FF"/>
<path d="M63.1763 40.7024H63.7444V43.2187H62.6089V41.9643H58.2695V36.511H59.4054V40.7024H60.1552V36.511H61.2909V40.7024H62.0407V36.511H63.1763V40.7024Z" fill="#5667FF"/>
<path d="M69.9482 37.7732H66.1767V38.6066H69.9482V39.8692H66.1767V40.7028H69.9482V41.9643H65.041V36.511H69.9482V37.7732Z" fill="#5667FF"/>
<path d="M76.502 36.5114V37.7658H72.731V41.9648H71.5947V36.5114H76.502Z" fill="#5667FF"/>
<path d="M79.2848 40.7028H81.92V37.7658H79.2848V40.7028ZM78.1484 36.5114H83.0557V41.9648H78.1484V36.5114Z" fill="#5667FF"/>
<path d="M21.4127 4.33508V14.8716H17.1232L21.4127 21.4478H17.1452L12.8559 14.8716H9.57834V21.4478H6.01465V4.33508H9.57834V10.9112H17.8494V4.33508H21.4127Z" fill="#5667FF"/>
<path d="M27.1758 17.4875H35.4466V8.2709H27.1758V17.4875ZM23.6123 4.33508H39.0104V21.4478H23.6123V4.33508Z" fill="#5667FF"/>
<path d="M46.5334 17.4878H53.5065V8.27126H48.4912L46.5334 11.3026V17.4878ZM57.0702 17.4143H58.83V25.3107H55.2885V21.4481H44.7737V25.3107H41.21V17.4143H42.9919V9.6402L46.4455 4.33545H57.0702V17.4143Z" fill="#5667FF"/>
</g>
<defs>
<clipPath id="clip0_13_187">
<rect width="86" height="46" fill="white"/>
</clipPath>
</defs>
</svg>
